<?xml version="1.0" encoding="utf-8"?>
<!-- Generator: Adobe Illustrator 23.0.0, SVG Export Plug-In . SVG Version: 6.00 Build 0)  -->
<svg version="1.1" id="Capa_1" xmlns="http://www.w3.org/2000/svg" xmlns:xlink="http://www.w3.org/1999/xlink" x="0px" y="0px"
	 viewBox="0 0 33.1 32" style="enable-background:new 0 0 33.1 32;" xml:space="preserve">
<style type="text/css">
	.st0{fill:#4BA82E;}
</style>
<path id="XMLID_421_" class="st0" d="M30.1,5.6c0-1.4-1.2-2.6-2.6-2.6c-1.4,0-2.6,1.2-2.6,2.6s1.2,2.6,2.6,2.6
	C28.9,8.2,30.1,7,30.1,5.6z M26.2,5.6c0-0.7,0.5-1.2,1.2-1.2s1.2,0.5,1.2,1.2s-0.5,1.2-1.2,1.2C26.8,6.8,26.2,6.3,26.2,5.6z
	 M25.6,14.7c0.3,0.6,0.7,1.4,1.9,1.4c1.2,0,1.6-0.9,1.9-1.4c0-0.1,0.7-1.4,0.7-1.4c1.5-2.9,3-6.1,3-7.7c0-3.1-2.5-5.6-5.6-5.6
	s-5.6,2.5-5.6,5.6c0,1.6,1.6,4.8,3,7.7C24.9,13.3,25.6,14.6,25.6,14.7z M27.5,1.4c2.3,0,4.2,1.9,4.2,4.2c0,1.4-1.9,5.2-2.9,7.1
	c0,0-0.7,1.4-0.7,1.4c-0.3,0.6-0.3,0.6-0.6,0.6c-0.3,0-0.4-0.1-0.6-0.6c0-0.1-0.7-1.4-0.7-1.4c-0.9-1.8-2.9-5.6-2.9-7.1
	C23.2,3.3,25.1,1.4,27.5,1.4z M30.2,15.9c-0.4,0-0.7,0.3-0.7,0.7c0,1.1-0.1,2.2-0.4,3.2c-2.7,0.6-5.4,1-8.2,1.2
	c0.1-1.4,0.2-2.9,0.2-4.5c0-1.3,0-2.6-0.1-3.9c0.2,0,0.4,0,0.6-0.1c0.4,0,0.6-0.4,0.6-0.8c0-0.4-0.4-0.7-0.8-0.6
	c-0.2,0-0.4,0-0.6,0.1C20.5,8.1,20,5.2,19.2,3c0.3,0.1,0.5,0.2,0.8,0.3c0.4,0.1,0.7-0.1,0.9-0.4C21,2.5,20.8,2.1,20.4,2
	c-1.6-0.5-3.3-0.8-5-0.8c-0.9,0-1.8,0.1-2.7,0.2c0,0,0,0-0.1,0C7.6,2.3,3.4,5.7,1.3,10.3c0,0,0,0.1-0.1,0.1C0.4,12.3,0,14.4,0,16.6
	c0,1.4,0.2,2.7,0.5,4c0,0,0,0,0,0.1c1.5,5.7,6.3,10.1,12.1,11.1c0,0,0,0,0.1,0c0.9,0.2,1.8,0.2,2.7,0.2s1.8-0.1,2.7-0.2
	c0,0,0,0,0.1,0c5.8-1.1,10.6-5.5,12.1-11.1c0,0,0,0,0-0.1c0.3-1.3,0.5-2.6,0.5-4C30.9,16.2,30.6,15.9,30.2,15.9z M19.7,16.6
	c0,1.6-0.1,3.1-0.2,4.5c-1.3,0.1-2.7,0.1-4.1,0.1s-2.7,0-4.1-0.1c-0.1-1.5-0.2-3-0.2-4.5c0-1.3,0-2.5,0.1-3.8
	c1.3,0.1,2.7,0.1,4.1,0.1c1.4,0,2.8,0,4.1-0.1C19.6,14,19.7,15.3,19.7,16.6z M13.3,2.7c0.7-0.1,1.4-0.2,2.2-0.2
	c0.7,0,1.4,0.1,2.2,0.2c0.9,2.2,1.5,5.2,1.8,8.8c-1.3,0.1-2.7,0.1-4,0.1c-1.4,0-2.7,0-4-0.1C11.7,7.9,12.4,4.8,13.3,2.7z M11.7,3
	c-0.8,2.2-1.3,5.1-1.6,8.3c-2.5-0.2-4.9-0.6-7.2-1.1C4.7,6.7,7.9,4.1,11.7,3z M10.6,26c-1.8-0.9-3.2-2.3-4.3-4
	c1.2,0.2,2.5,0.3,3.8,0.4C10.2,23.7,10.4,24.9,10.6,26z M1.4,16.6c0-1.8,0.3-3.5,1-5.1c2.4,0.6,5,1,7.6,1.2
	c-0.1,1.3-0.1,2.5-0.1,3.9c0,1.5,0.1,3,0.2,4.5c-1.5-0.1-2.9-0.3-4.4-0.5c-0.5-1.2-0.8-2.6-0.8-3.9c0-0.4-0.3-0.7-0.7-0.7
	s-0.7,0.3-0.7,0.7c0,1.3,0.2,2.5,0.6,3.7c-0.8-0.1-1.6-0.3-2.3-0.4C1.5,18.8,1.4,17.7,1.4,16.6z M2.2,21.3c0.8,0.2,1.6,0.3,2.5,0.4
	c1.3,2.7,3.5,4.8,6.3,5.9c0.2,0.9,0.4,1.7,0.7,2.5C7.3,28.9,3.7,25.6,2.2,21.3z M17.6,30.5c-0.7,0.1-1.4,0.2-2.2,0.2
	c-0.7,0-1.5-0.1-2.2-0.2c-0.3-0.7-0.5-1.5-0.8-2.3c0.9,0.2,1.9,0.4,2.9,0.4c0.4,0,0.7-0.3,0.7-0.7c0-0.4-0.3-0.7-0.7-0.7
	c-1.2,0-2.3-0.2-3.3-0.5c-0.3-1.3-0.5-2.7-0.6-4.1c2.6,0.1,5.3,0.1,7.9,0C19,25.7,18.4,28.5,17.6,30.5z M19.2,30.1
	c0.7-2.1,1.3-4.7,1.6-7.7c2.7-0.2,5.3-0.6,7.9-1.1C27.2,25.6,23.6,28.9,19.2,30.1z"/>
</svg>
