<?xml version="1.0" encoding="utf-8"?>
<!-- Generator: Adobe Illustrator 23.0.0, SVG Export Plug-In . SVG Version: 6.00 Build 0)  -->
<svg version="1.1" id="Capa_1" xmlns="http://www.w3.org/2000/svg" xmlns:xlink="http://www.w3.org/1999/xlink" x="0px" y="0px"
	 viewBox="0 0 64 54" style="enable-background:new 0 0 64 54;" xml:space="preserve">
<style type="text/css">
	.st0{fill:#4BA82E;}
</style>
<g>
	<g>
		<path class="st0" d="M23,31.4c-0.3,0-0.7,0.2-1,0.3c-0.2,0.3-0.3,0.7-0.3,1v9h-18v-39h26.7v4.8c0.5-0.3,1.2-0.5,1.9-0.5H34V1
			c0-0.5-0.5-1.2-1.2-1.2H1.2C0.5-0.2,0,0.3,0,1v42.9C0,44.5,0.5,45,1.2,45h23.6c0.3,0,0.7-0.2,0.9-0.3l3.1-3.4v-9.9L23,31.4
			L23,31.4z"/>
		<path class="st0" d="M19.4,27.5l7.8-6.5c0,0,0.7-0.5,0-1c-0.7-0.9-8-6.3-8-6.3s-1-1-1,0.3s0,3.4,0,3.4s-0.5,0-1.4,0
			c-2.7,0-7.8,0-9.9,0c0,0-0.5,0-0.5,0.5c0,0.7,0,4.3,0,5.1c0,0.9,0.5,0.7,0.5,0.7c2,0,7.1,0,9.9,0c1,0,1.5,0,1.5,0s0,2.6,0,3.7
			C18.4,28.5,19.4,27.5,19.4,27.5z"/>
		<path class="st0" d="M62.9,9H31.1c-0.7,0-1.2,0.5-1.2,1.2V53c0,0.7,0.5,1.2,1.2,1.2h23.6c0.3,0,0.7-0.2,0.9-0.3l8-9
			c0.2-0.2,0.3-0.5,0.3-0.9V10.2C64.1,9.5,63.6,9,62.9,9z M60.4,40.6h-7.3l0,0c-0.3,0-0.7,0.2-1,0.3c-0.3,0.2-0.3,0.7-0.3,1v9h-18
			V12h26.7V40.6L60.4,40.6z"/>
		<path class="st0" d="M44.9,38.6c0,0,1,1,1-0.3s0-3.4,0-3.4s0.5,0,1.4,0c2.7,0,7.8,0,9.9,0c0,0,0.5,0,0.5-0.5c0-0.7,0-4.3,0-5.1
			c0-0.9-0.5-0.7-0.5-0.7c-2,0-7.1,0-9.9,0c-1,0-1.5,0-1.5,0s0-2.6,0-3.7c0-1-0.9,0-0.9,0l-7.8,6.5c0,0-0.7,0.5,0,1
			C37.6,33.1,44.9,38.6,44.9,38.6z"/>
	</g>
</g>
</svg>
