<?xml version="1.0" encoding="utf-8"?>
<!-- Generator: Adobe Illustrator 23.0.0, SVG Export Plug-In . SVG Version: 6.00 Build 0)  -->
<svg version="1.1" id="Capa_1" xmlns="http://www.w3.org/2000/svg" xmlns:xlink="http://www.w3.org/1999/xlink" x="0px" y="0px"
	 viewBox="0 0 34.2 32" style="enable-background:new 0 0 34.2 32;" xml:space="preserve">
<style type="text/css">
	.st0{fill:#4BA82E;}
</style>
<g>
	<path class="st0" d="M33.7,0H0.6C0.2,0,0,0.2,0,0.6v30.9C0,31.8,0.2,32,0.6,32h33.1c0.3,0,0.6-0.2,0.6-0.6V0.6
		C34.2,0.2,34,0,33.7,0z M33.1,3.7h-2.6V1.1h2.6V3.7z M29.4,1.1v2.6H1.1V1.1H29.4z M1.1,30.9V4.8h32v26.1H1.1z"/>
	<path class="st0" d="M29.2,15.1H5c-0.3,0-0.6,0.2-0.6,0.6s0.2,0.6,0.6,0.6h24.3c0.3,0,0.6-0.2,0.6-0.6S29.5,15.1,29.2,15.1z"/>
	<path class="st0" d="M15.6,18H5c-0.3,0-0.6,0.2-0.6,0.6s0.2,0.6,0.6,0.6h10.7c0.3,0,0.6-0.2,0.6-0.6S15.9,18,15.6,18z"/>
	<path class="st0" d="M15.6,21H5c-0.3,0-0.6,0.2-0.6,0.6c0,0.3,0.2,0.6,0.6,0.6h10.7c0.3,0,0.6-0.2,0.6-0.6
		C16.2,21.2,15.9,21,15.6,21z"/>
	<path class="st0" d="M15.6,23.9H5c-0.3,0-0.6,0.2-0.6,0.6S4.7,25,5,25h10.7c0.3,0,0.6-0.2,0.6-0.6S15.9,23.9,15.6,23.9z"/>
	<path class="st0" d="M29.2,18H18.6c-0.3,0-0.6,0.2-0.6,0.6v2.2c0,0.3,0.2,0.6,0.6,0.6s0.6-0.2,0.6-0.6v-1.7h9.6v7.7h-9.6V23
		c0-0.3-0.2-0.6-0.6-0.6S18,22.7,18,23v4.4c0,0.3,0.2,0.6,0.6,0.6h10.7c0.3,0,0.6-0.2,0.6-0.6v-8.8C29.8,18.3,29.5,18,29.2,18z"/>
	<path class="st0" d="M15.6,26.9H5c-0.3,0-0.6,0.2-0.6,0.6C4.4,27.7,4.7,28,5,28h10.7c0.3,0,0.6-0.2,0.6-0.6
		C16.2,27.1,15.9,26.9,15.6,26.9z"/>
	<path class="st0" d="M24.8,10.7c0.4,0.2,0.8,0.3,1.2,0.3c1,0.2,1.1,0.3,1.1,0.6c0,0.4-0.6,0.6-1,0.6c-0.5,0-0.9-0.2-1-0.4
		c-0.1-0.3-0.4-0.4-0.7-0.3c-0.3,0.1-0.4,0.4-0.3,0.7c0.3,0.7,1,1.1,2,1.1c1.2,0,2.1-0.7,2.1-1.7c0-0.6-0.3-1-0.8-1.3
		c-0.4-0.2-0.8-0.3-1.2-0.3c-1-0.2-1.1-0.3-1.1-0.6c0-0.4,0.6-0.6,1-0.6c0.5,0,0.9,0.2,1,0.4c0.1,0.3,0.4,0.4,0.7,0.3
		c0.3-0.1,0.4-0.4,0.3-0.7c-0.3-0.7-1-1.1-2-1.1c-1.2,0-2.1,0.7-2.1,1.7C24,10,24.3,10.4,24.8,10.7z"/>
	<path class="st0" d="M18.4,12.8c0.1,0.2,0.2,0.4,0.5,0.4c0.2,0,0.4-0.1,0.6-0.3l0.6-1.2l0.6,1.2c0.1,0.2,0.3,0.3,0.5,0.3
		c0,0,0,0,0.1,0c0.2,0,0.4-0.2,0.5-0.4l1.1-4.4c0.1-0.3-0.1-0.6-0.4-0.7c-0.3-0.1-0.6,0.1-0.7,0.4l-0.8,3l-0.5-0.9
		c-0.1-0.2-0.3-0.3-0.5-0.3s-0.4,0.1-0.5,0.3l-0.5,0.9l-0.8-3c-0.1-0.3-0.4-0.5-0.7-0.4c-0.3,0.1-0.5,0.4-0.4,0.7L18.4,12.8z"/>
	<path class="st0" d="M12.5,13.2h3.1c0.3,0,0.6-0.2,0.6-0.6s-0.2-0.6-0.6-0.6h-2.6V11h1.5c0.3,0,0.6-0.2,0.6-0.6s-0.2-0.6-0.6-0.6
		h-1.5V8.8h2.6c0.3,0,0.6-0.2,0.6-0.6c0-0.3-0.2-0.6-0.6-0.6h-3.1C12.2,7.7,12,8,12,8.3v4.4C12,13,12.2,13.2,12.5,13.2z"/>
	<path class="st0" d="M6.6,13.2c0.3,0,0.6-0.2,0.6-0.6V9.8L9.9,13c0.1,0.1,0.3,0.2,0.4,0.2c0.1,0,0.1,0,0.2,0
		c0.2-0.1,0.4-0.3,0.4-0.5V8.3c0-0.3-0.2-0.6-0.6-0.6C10,7.7,9.8,8,9.8,8.3v2.9L7,7.9C6.8,7.7,6.6,7.7,6.4,7.8C6.1,7.8,6,8,6,8.3
		v4.4C6,13,6.3,13.2,6.6,13.2z"/>
</g>
</svg>
