<?xml version="1.0" encoding="utf-8"?>
<!-- Generator: Adobe Illustrator 23.0.0, SVG Export Plug-In . SVG Version: 6.00 Build 0)  -->
<svg version="1.1" id="Слой_1" xmlns="http://www.w3.org/2000/svg" xmlns:xlink="http://www.w3.org/1999/xlink" x="0px" y="0px"
	 viewBox="0 0 48 48" style="enable-background:new 0 0 48 48;" xml:space="preserve">
<style type="text/css">
	.st0{fill:#4BA82E;}
</style>
<path class="st0" d="M21,21V2.625C21,1.17525,22.34314,0,24,0H24c1.65685,0,3,1.17525,3,2.625V21 M21,27v18.375
	C21,46.82475,22.34314,48,24,48H24c1.65685,0,3-1.17525,3-2.625V27 M24,27h21c1.65685,0,3-1.34314,3-3V24c0-1.65685-1.34314-3-3-3
	H24 M24,21H3c-1.65685,0-3,1.34314-3,3V24c0,1.65685,1.34314,3,3,3h21"/>
</svg>
