<?xml version="1.0" encoding="utf-8"?>
<!-- Generator: Adobe Illustrator 23.0.0, SVG Export Plug-In . SVG Version: 6.00 Build 0)  -->
<svg version="1.1" id="Capa_1" xmlns="http://www.w3.org/2000/svg" xmlns:xlink="http://www.w3.org/1999/xlink" x="0px" y="0px"
	 viewBox="0 0 38.7 32" style="enable-background:new 0 0 38.7 32;" xml:space="preserve">
<style type="text/css">
	.st0{fill:#4BA82E;}
</style>
<g>
	<path class="st0" d="M17.2,22.3h19.1c1.3,0,2.4-1.1,2.4-2.4V4.8c0-0.3-0.3-0.6-0.6-0.6H7.3L6.2,2C5.5,0.7,4.3,0,3,0H0.6
		C0.3,0,0,0.3,0,0.6s0.3,0.6,0.6,0.6H3c0.9,0,1.8,0.5,2.2,1.3l9.4,18.2c0.2,0.3,0.4,0.6,0.6,0.8L11.8,26c-1.5,0.2-2.7,1.4-2.7,3
		c0,1.6,1.3,3,3,3s3-1.3,3-3c0-0.7-0.2-1.3-0.7-1.9h18.9c-0.4,0.5-0.7,1.2-0.7,1.9c0,1.6,1.3,3,3,3c1.6,0,3-1.3,3-3c0-1.6-1.3-3-3-3
		H13.2l2.9-3.9C16.5,22.3,16.8,22.3,17.2,22.3z M12.1,30.9c-1,0-1.9-0.8-1.9-1.9c0-1,0.8-1.9,1.9-1.9l0,0l0,0c1,0,1.9,0.8,1.9,1.9
		C13.9,30,13.1,30.9,12.1,30.9z M37.5,29c0,1-0.8,1.9-1.9,1.9c-1,0-1.9-0.8-1.9-1.9c0-1,0.8-1.9,1.9-1.9C36.7,27.2,37.5,28,37.5,29z
		 M7.9,5.4h29.6v14.6c0,0.7-0.6,1.2-1.2,1.2H17.2c-0.7,0-1.3-0.4-1.6-1L7.9,5.4z"/>
	<path class="st0" d="M12.1,28.5c-0.2,0-0.3,0.1-0.4,0.2c-0.1,0.1-0.2,0.2-0.2,0.4c0,0.2,0.1,0.3,0.2,0.4c0.1,0.1,0.2,0.2,0.4,0.2
		c0.2,0,0.3-0.1,0.4-0.2c0.1-0.1,0.2-0.2,0.2-0.4c0-0.2-0.1-0.3-0.2-0.4C12.4,28.5,12.2,28.5,12.1,28.5z"/>
	<path class="st0" d="M35.3,28.6c-0.1,0.1-0.2,0.2-0.2,0.4c0,0.2,0.1,0.3,0.2,0.4c0.1,0.1,0.2,0.2,0.4,0.2c0.2,0,0.3-0.1,0.4-0.2
		c0.1-0.1,0.2-0.2,0.2-0.4c0-0.2-0.1-0.3-0.2-0.4c-0.1-0.1-0.2-0.2-0.4-0.2C35.5,28.5,35.4,28.5,35.3,28.6z"/>
	<path class="st0" d="M32.7,18.7c0.3,0,0.6-0.3,0.6-0.6V8.4c0-0.3-0.3-0.6-0.6-0.6c-0.3,0-0.6,0.3-0.6,0.6v9.7
		C32.1,18.4,32.3,18.7,32.7,18.7z"/>
	<path class="st0" d="M29,18.7c0.3,0,0.6-0.3,0.6-0.6V8.4c0-0.3-0.3-0.6-0.6-0.6s-0.6,0.3-0.6,0.6v9.7C28.5,18.4,28.7,18.7,29,18.7z
		"/>
	<path class="st0" d="M25.4,18.7c0.3,0,0.6-0.3,0.6-0.6V8.4c0-0.3-0.3-0.6-0.6-0.6s-0.6,0.3-0.6,0.6v9.7
		C24.8,18.4,25.1,18.7,25.4,18.7z"/>
	<path class="st0" d="M21.8,18.7c0.3,0,0.6-0.3,0.6-0.6V8.4c0-0.3-0.3-0.6-0.6-0.6c-0.3,0-0.6,0.3-0.6,0.6v9.7
		C21.2,18.4,21.4,18.7,21.8,18.7z"/>
	<path class="st0" d="M18.1,18.7c0.3,0,0.6-0.3,0.6-0.6V8.4c0-0.3-0.3-0.6-0.6-0.6c-0.3,0-0.6,0.3-0.6,0.6v9.7
		C17.6,18.4,17.8,18.7,18.1,18.7z"/>
</g>
</svg>
