<?xml version="1.0" encoding="utf-8"?>
<!-- Generator: Adobe Illustrator 23.0.0, SVG Export Plug-In . SVG Version: 6.00 Build 0)  -->
<svg version="1.1" id="Capa_1" xmlns="http://www.w3.org/2000/svg" xmlns:xlink="http://www.w3.org/1999/xlink" x="0px" y="0px"
	 viewBox="0 0 32 47" style="enable-background:new 0 0 32 47;" xml:space="preserve">
<style type="text/css">
	.st0{fill:#4BA82E;}
</style>
<path class="st0" d="M31.6,0H0.4C0.1,0,0,0.2,0,0.5v45.9c0,0.1,0.1,0.3,0.3,0.4C0.3,47,0.6,47,0.7,47L16,39.8L31.3,47h0.1
	c0.1,0,0.1,0,0.3-0.1s0.3-0.3,0.3-0.4V0.5C32,0.2,31.7,0,31.6,0z M16.1,38.8H16h-0.1L1,45.8V5.3h2.6c0.3,0,0.4-0.1,0.4-0.4
	S4,4.3,3.7,4.3H1V1h30.1v3.4H7.3C7,4.4,6.9,4.6,6.9,4.9S7,5.3,7.3,5.3h23.8v40.5L16.1,38.8z M24.4,18.7h-5.7l-1.8-5.4
	c-0.1-0.4-0.4-0.7-0.9-0.7s-0.7,0.3-0.9,0.7l-1.8,5.4H7.6c-0.4,0-0.7,0.3-0.9,0.7c-0.1,0.4,0,0.9,0.3,1l4.7,3.4L10,29.2
	c-0.1,0.3,0,0.6,0.1,0.9s0.4,0.4,0.7,0.4c0.1,0,0.4,0,0.6-0.1l4.7-3.4l4.7,3.4c0.1,0.1,0.3,0.1,0.6,0.1s0.6-0.1,0.7-0.4
	c0.1-0.3,0.3-0.6,0.1-0.9l-1.8-5.4l4.7-3.4c0.3-0.3,0.4-0.7,0.3-1C25.1,18.9,24.8,18.7,24.4,18.7z M19.8,23.1
	c-0.3,0.3-0.4,0.7-0.3,1l1.8,5.4l-4.7-3.4C16.4,26,16.3,26,16,26c-0.1,0-0.4,0-0.6,0.1l-4.7,3.4l1.8-5.4c0.1-0.4,0-0.9-0.3-1
	l-4.7-3.4h5.7c0.4,0,0.7-0.3,0.9-0.7l1.8-5.4l1.8,5.4c0.1,0.4,0.4,0.7,0.9,0.7h5.7L19.8,23.1z"/>
</svg>
