<?xml version="1.0" encoding="utf-8"?>
<!-- Generator: Adobe Illustrator 23.0.0, SVG Export Plug-In . SVG Version: 6.00 Build 0)  -->
<svg version="1.1" id="Capa_1" xmlns="http://www.w3.org/2000/svg" xmlns:xlink="http://www.w3.org/1999/xlink" x="0px" y="0px"
	 viewBox="0 0 64 54" style="enable-background:new 0 0 64 54;" xml:space="preserve">
<style type="text/css">
	.st0{fill:#4BA82E;}
</style>
<path class="st0" d="M23,31.4c-0.3,0-0.7,0-1,0.3c-0.3,0.3-0.3,0.7-0.3,1v9.1H3.8V3.1h26.6v4.7c0.7-0.3,1-0.7,2-0.7h2V1.4
	c-0.3-0.7-1-1.3-1.7-1.3H1.4c-0.7,0-1.3,0.7-1.3,1.3v42.4c0,0.7,0.7,1.3,1.3,1.3H25c0.3,0,0.7,0,1-0.3l3-3.4V31.4H23L23,31.4z
	 M19.3,27.3l7.7-6.4c0,0,0.7-0.7,0-1c-0.7-0.7-7.7-6.1-7.7-6.1s-1-1-1,0.3s0,3.4,0,3.4s-0.7,0-1.3,0c-2.7,0-7.7,0-9.8,0
	c0,0-0.3,0-0.3,0.7s0,4.4,0,5.1c-0.3,0.7,0.3,0.3,0.3,0.3c2,0,7.1,0,9.8,0c1,0,1.7,0,1.7,0s0,2.7,0,3.7
	C18.6,28.3,19.3,27.3,19.3,27.3z M62.4,9.1H31c-0.7,0-1.3,0.7-1.3,1v42.4c0,0.7,0.7,1.3,1.3,1.3h23.6c0.3,0,0.7,0,1-0.3l8.1-9.1
	c0.3-0.3,0.3-0.7,0.3-0.7V10.5C63.7,9.8,63,9.1,62.4,9.1z M60,40.5h-7.1l0,0c-0.3,0-0.7,0-1,0.3c-0.3,0.3-0.3,0.7-0.3,1v9.1H33.4
	V12.2H60V40.5L60,40.5z M44.5,38.5c0,0,1,1,1-0.3c0-1.3,0-3.4,0-3.4s0.7,0,1.3,0c2.7,0,7.7,0,9.8,0c0,0,0.3,0,0.3-0.7s0-4.4,0-5.1
	c0-0.7-0.7-0.7-0.7-0.7c-2,0-7.1,0-9.8,0c-1,0-1.7,0-1.7,0s0-2.7,0-3.7c0-1-1,0-1,0L36.1,31c0,0-0.7,0.7,0,1
	C37.4,33.1,44.5,38.5,44.5,38.5z"/>
</svg>
