<?xml version="1.0" encoding="utf-8"?>
<!-- Generator: Adobe Illustrator 23.0.0, SVG Export Plug-In . SVG Version: 6.00 Build 0)  -->
<svg version="1.1" id="Capa_1" xmlns="http://www.w3.org/2000/svg" xmlns:xlink="http://www.w3.org/1999/xlink" x="0px" y="0px"
	 viewBox="0 0 281.5 281.5" style="enable-background:new 0 0 281.5 281.5;" xml:space="preserve">
<style type="text/css">
	.st0{fill:#4BA82E;}
</style>
<g>
	<path class="st0" d="M140.7,0C63.1,0,0,63.1,0,140.7s63.1,140.7,140.7,140.7s140.7-63.1,140.7-140.7S218.4,0,140.7,0z M140.7,263.5
		C73.1,263.5,18,208.4,18,140.7S73.1,18,140.7,18s122.7,55.1,122.7,122.7S208.4,263.5,140.7,263.5z"/>
	<path class="st0" d="M140.7,65.3c-26,0-47.2,21.2-47.2,47.2c0,5,4,9,9,9s9-4,9-9c0-16.1,13.1-29.2,29.2-29.2s29.2,13.1,29.2,29.2
		s-13.1,29.2-29.2,29.2c-5,0-9,4-9,9v34.6c0,5,4,9,9,9s9-4,9-9v-26.5c21.7-4.2,38.2-23.4,38.2-46.3
		C187.9,86.5,166.7,65.3,140.7,65.3z"/>
	<path class="st0" d="M140.7,208.2c-2.4,0-4.7,1-6.4,2.6c-1.7,1.7-2.6,4-2.6,6.4s1,4.7,2.6,6.4c1.7,1.7,4,2.6,6.4,2.6s4.7-1,6.4-2.6
		c1.7-1.7,2.6-4,2.6-6.4s-1-4.7-2.6-6.4C145.4,209.1,143.1,208.2,140.7,208.2z"/>
</g>
</svg>
