<?xml version="1.0" encoding="utf-8"?>
<!-- Generator: Adobe Illustrator 23.0.0, SVG Export Plug-In . SVG Version: 6.00 Build 0)  -->
<svg version="1.1" id="Capa_1" xmlns="http://www.w3.org/2000/svg" xmlns:xlink="http://www.w3.org/1999/xlink" x="0px" y="0px"
	 viewBox="0 0 29.9 32" style="enable-background:new 0 0 29.9 32;" xml:space="preserve">
<style type="text/css">
	.st0{fill:#4BA82E;}
</style>
<g>
	<path class="st0" d="M29.9,11.8c0-0.1,0-0.2-0.1-0.3l-3.9-7.3V0.7c0-0.4-0.3-0.7-0.7-0.7H4.7C4.3,0,4,0.3,4,0.7v3.5l-3.9,7.3
		C0,11.6,0,11.7,0,11.8l0,0v19.5C0,31.7,0.3,32,0.7,32h28.5c0.4,0,0.7-0.3,0.7-0.7V11.8L29.9,11.8z M17.6,5l1.2,6.1H11L12.2,5H17.6z
		 M18.9,12.5c-0.3,1.9-2,3.4-4,3.4s-3.7-1.5-4-3.4H18.9z M28.4,12.5c-0.3,1.9-2,3.4-4,3.4c-2,0-3.7-1.5-4-3.4H28.4z M20.3,11.1
		L19.1,5h5.7l3.2,6.1H20.3L20.3,11.1z M5.4,3.6V1.4h19.1v2.3H5.4z M5.1,5h5.7l-1.2,6.1H1.9L5.1,5z M9.4,12.5c-0.3,1.9-2,3.3-4,3.3
		s-3.7-1.4-4-3.3H9.4z M18.8,30.6h-7.8V20.3h7.8V30.6z M20.2,30.6v-11c0-0.4-0.3-0.7-0.7-0.7h-9.1c-0.4,0-0.7,0.3-0.7,0.7v11H1.4
		V15.4c0.1,0.1,0.1,0.1,0.2,0.2c1,1,2.4,1.6,3.8,1.6s2.8-0.6,3.8-1.6c0.4-0.4,0.7-0.7,0.9-1.2c0.9,1.7,2.7,2.8,4.8,2.8
		s3.8-1.1,4.8-2.8c0.9,1.7,2.7,2.8,4.8,2.8c1.6,0,3.1-0.7,4-1.8v15.2H20.2z"/>
	<path class="st0" d="M12.4,25.6h1.5c0.4,0,0.7-0.3,0.7-0.7c0-0.4-0.3-0.7-0.7-0.7h-1.5c-0.4,0-0.7,0.3-0.7,0.7
		C11.7,25.3,12,25.6,12.4,25.6z"/>
</g>
</svg>
