<?xml version="1.0" encoding="utf-8"?>
<!-- Generator: Adobe Illustrator 23.0.0, SVG Export Plug-In . SVG Version: 6.00 Build 0)  -->
<svg version="1.1" id="Capa_1" xmlns="http://www.w3.org/2000/svg" xmlns:xlink="http://www.w3.org/1999/xlink" x="0px" y="0px"
	 viewBox="0 0 64 66.5" style="enable-background:new 0 0 64 66.5;" xml:space="preserve">
<style type="text/css">
	.st0{fill:#888888;}
</style>
<path class="st0" d="M59,24.5h-6.6v-6.6c0-2.1-1.2-3.7-3.3-4.2V1.2C49,0.4,48.6,0,47.8,0H1.2C0.4,0,0,0.4,0,1.2v63.6
	c0,0.4,0.4,1.2,0.8,1.2s1.2,0,1.7-0.4l22.4-21.2l22.4,21.6c0.4,0.4,0.4,0.4,0.8,0.4h0.4c0.4-0.4,0.8-0.8,0.8-1.2V44.9
	c2.1-0.4,3.3-2.5,3.3-4.6v-6.6h6.6c2.5,0,4.6-2.1,4.6-4.6C64,26.6,61.9,24.5,59,24.5z M25.8,41.6c-0.4-0.4-1.2-0.4-2.1,0L2.5,61.9
	v-59h44.1v10.8c-2.1,0.4-3.3,2.5-3.3,4.6v6.6h-6.6c-2.1-0.4-4.2,1.7-4.2,4.2s2.1,4.6,4.6,4.6h6.6v6.6c0,2.1,1.2,3.7,3.3,4.2v17
	L25.8,41.6z M59.4,30.8h-7.9c-0.8,0-1.2,0.8-1.2,1.2v7.9c0,0.8-0.8,1.7-1.7,2.1l0,0l0,0l0,0c-0.8,0-1.7-0.8-1.7-1.7v-7.9
	c0-0.4,0-0.8-0.4-0.8c-0.4-0.4-0.4-0.4-0.8-0.4l0,0h-7.9c-2.1,0-2.9-0.8-2.9-2.1c0-0.8,0.8-1.7,1.7-2.1h7.9c0.4,0,0.8,0,0.8-0.4
	c0-0.4,0.4-0.4,0.4-0.8v-7.9c0-0.8,0.8-1.7,1.7-2.1c0.8,0,1.7,0.8,1.7,1.7v7.9c0,0.4,0,0.8,0.4,0.8c0.4,0.4,0.4,0.4,0.8,0.4h7.9
	c0.8,0,1.7,0.8,1.7,1.7C61.1,29.9,60.3,30.8,59.4,30.8z"/>
</svg>
