<?xml version="1.0" encoding="utf-8"?>
<!-- Generator: Adobe Illustrator 23.0.0, SVG Export Plug-In . SVG Version: 6.00 Build 0)  -->
<svg version="1.1" id="Capa_1" xmlns="http://www.w3.org/2000/svg" xmlns:xlink="http://www.w3.org/1999/xlink" x="0px" y="0px"
	 viewBox="0 0 32 32" style="enable-background:new 0 0 32 32;" xml:space="preserve">
<style type="text/css">
	.st0{fill:#E84242;}
</style>
<g>
	<path class="st0" d="M24,9.9L22.1,8l8-8L32,1.9L24,9.9z M18.4,17.8c-0.5,0-0.6,0.3-0.6,0.8V23c0,0.5,0.3,0.8,0.6,0.8
		c0.4,0,0.6-0.3,0.6-0.8v-4.4C19,18,18.7,17.8,18.4,17.8z M12.7,18.3v-4.4c0-0.5-0.3-0.8-0.6-0.8c-0.5,0-0.6,0.3-0.6,0.8v4.4
		c0,0.5,0.3,0.8,0.6,0.8C12.4,19,12.7,18.8,12.7,18.3z M27.7,18.8L14.5,32L0,17.5L13.2,4.3c3.3-3.3,8.5-3.9,12.3-1.6l-2.1,2
		c-1.1-0.1-2.2,0.4-3.1,1.2c-1.5,1.5-1.5,4.1,0,5.7c1.6,1.5,4.1,1.5,5.7,0c0.8-0.8,1.3-2,1.2-3.1l2.1-2.1
		C31.6,10.5,31.1,15.5,27.7,18.8z M12.1,20.2c1.3,0,2-0.7,2-2.1v-4.2c0-1.4-0.7-2.1-2-2.1s-2,0.7-2,2.1v4.2
		C10.1,19.5,10.8,20.2,12.1,20.2z M18.3,12h-1.2l-5,12.8h1.2L18.3,12z M20.4,18.7c0-1.4-0.7-2.1-2-2.1s-2,0.7-2,2.1v4.2
		c0,1.4,0.7,2.1,2,2.1c1.3,0,2-0.7,2-2.1V18.7z"/>
</g>
</svg>
