<?xml version="1.0" encoding="utf-8"?>
<!-- Generator: Adobe Illustrator 23.0.0, SVG Export Plug-In . SVG Version: 6.00 Build 0)  -->
<svg version="1.1" id="Capa_1" xmlns="http://www.w3.org/2000/svg" xmlns:xlink="http://www.w3.org/1999/xlink" x="0px" y="0px"
	 viewBox="0 0 17.129 16" style="enable-background:new 0 0 17.129 16;" xml:space="preserve">
<style type="text/css">
	.st0{fill:#FF9A00;}
</style>
<g>
	<g>
		<g>
			<path class="st0" d="M12.19248,5.22745L9.78875,4.87781L8.7132,2.699c-0.10766-0.21852-0.46582-0.21852-0.57242,0L7.0663,4.87781
				L4.6615,5.22745c-0.11939,0.01706-0.21852,0.1002-0.2569,0.21639C4.36623,5.56003,4.39714,5.68688,4.48455,5.77109
				l1.73964,1.69594L5.8138,9.86223c-0.02132,0.12152,0.02772,0.24091,0.12578,0.31339
				c0.09913,0.07035,0.23025,0.07995,0.33684,0.02345l2.14897-1.13098l2.14897,1.13098
				c0.0469,0.02345,0.09913,0.03624,0.1503,0.03624c0.06609,0,0.13218-0.02132,0.18867-0.06076
				c0.09594-0.07142,0.14604-0.19187,0.12578-0.31339l-0.41039-2.3952l1.74071-1.69594
				c0.08741-0.08421,0.11726-0.21106,0.08101-0.32512C12.41207,5.32765,12.31293,5.2445,12.19248,5.22745z"/>
			<path class="st0" d="M17.12892,6.53538C17.12892,2.93138,14.40327,0,11.05191,0H6.07603
				C2.72466,0.00107,0.00008,2.93245,0.00008,6.53538c0,3.56989,2.67448,6.47995,5.98001,6.53538
				c0.58201,0.23025,4.00373,1.58188,6.87009,2.67235C13.32026,15.92112,13.63259,16,13.8639,16
				c0.45623,0,0.59694-0.31339,0.62891-0.40826c0.08954-0.26649,0.23238-0.69394-2.31099-2.70753
				C15.40314,12.26169,17.12892,9.32072,17.12892,6.53538z M13.86283,15.01612L13.86283,15.01612v0.49247V15.01612z
				 M10.89095,12.02079H9.41353l1.18215,0.88581c0.74724,0.55963,1.55736,1.21732,2.14257,1.74071
				c-3.01985-1.15336-6.44477-2.51139-6.48101-2.52525l-0.08741-0.03518H6.07496c-2.80773,0-5.09207-2.48901-5.09207-5.5515
				c0-3.06036,2.28434-5.5515,5.09207-5.5515h4.97588c2.80879,0,5.09314,2.49007,5.09314,5.5515
				C16.14398,9.19387,14.30201,12.02079,10.89095,12.02079z"/>
		</g>
	</g>
</g>
</svg>
